<svg xmlns="http://www.w3.org/2000/svg" viewBox="0 0 200 200">
  <defs>
    <radialGradient id="w5" cx="52%" cy="44%" r="62%">
      <stop offset="0%" stop-color="#9FC6C0" stop-opacity=".5"/>
      <stop offset="58%" stop-color="#E8B9AC" stop-opacity=".22"/>
      <stop offset="100%" stop-color="#E8B9AC" stop-opacity="0"/>
    </radialGradient>
    <linearGradient id="g5" x1="0" y1="0" x2="0" y2="1">
      <stop offset="0%" stop-color="#7FB4B8" stop-opacity=".6"/>
      <stop offset="100%" stop-color="#4E8A94" stop-opacity=".8"/>
    </linearGradient>
    <filter id="b5"><feGaussianBlur stdDeviation="6"/></filter>
    <filter id="b5s"><feGaussianBlur stdDeviation="1"/></filter>
  </defs>
  <ellipse cx="100" cy="100" rx="76" ry="72" fill="url(#w5)" filter="url(#b5)"/>
  <ellipse cx="96" cy="172" rx="34" ry="6" fill="#2C3A5C" opacity=".14" filter="url(#b5)"/>
  <path d="M86 70 C86 84 78 88 74 96 C70 103 70 112 70 124 L70 156 C70 164 76 168 84 168
           L108 168 C116 168 122 164 122 156 L122 124 C122 112 122 103 118 96
           C114 88 106 84 106 70 Z" fill="url(#g5)" filter="url(#b5s)"/>
  <path d="M86 70 C86 84 78 88 74 96 C70 103 70 112 70 124 L70 156 C70 164 76 168 84 168
           L108 168 C116 168 122 164 122 156 L122 124 C122 112 122 103 118 96
           C114 88 106 84 106 70 Z" fill="none" stroke="#2C3A5C" stroke-opacity=".5" stroke-width="1.4"/>
  <rect x="80" y="46" width="32" height="26" rx="8" fill="#2F6B4F" opacity=".92" filter="url(#b5s)"/>
  <path d="M80 58 L112 58" stroke="#1F4A36" stroke-width="1.6" opacity=".5"/>
  <rect x="134" y="140" width="30" height="24" rx="8" fill="#2F6B4F" opacity=".8" transform="rotate(14 149 152)"/>
  <rect x="76" y="112" width="40" height="30" rx="4" fill="#F8F5F0" opacity=".4"/>
</svg>
